<svg xmlns="http://www.w3.org/2000/svg" xmlns:xlink="http://www.w3.org/1999/xlink" viewBox="0 0 2198.32 875.19"><defs><style>.a,.b,.c,.d,.e,.f{fill-rule:evenodd;isolation:isolate;opacity:0.48;}.a{fill:url(#a);}.b{fill:url(#b);}.c{fill:url(#c);}.d{fill:url(#d);}.e{fill:url(#e);}.f{fill:url(#f);}.g{fill:#200063;}</style><linearGradient id="a" x1="87.69" y1="121.26" x2="612.99" y2="121.26" gradientTransform="matrix(1, 0, 0, -1, 0, 780.15)" gradientUnits="userSpaceOnUse"><stop offset="0" stop-color="#03b2de"></stop><stop offset="0.11" stop-color="#0ba7e0"></stop><stop offset="0.31" stop-color="#228be5"></stop><stop offset="0.57" stop-color="#475dee"></stop><stop offset="0.88" stop-color="#791dfa"></stop><stop offset="1" stop-color="#8e03ff"></stop></linearGradient><linearGradient id="b" x1="99.47" y1="121.28" x2="624.55" y2="121.28" xlink:href="#a"></linearGradient><linearGradient id="c" x1="99.14" y1="659.88" x2="624.55" y2="659.88" gradientTransform="matrix(1, 0, 0, -1, 0, 780.15)" gradientUnits="userSpaceOnUse"><stop offset="0" stop-color="#1d88e1"></stop><stop offset="0.2" stop-color="#1993dc"></stop><stop offset="0.54" stop-color="#10afcf"></stop><stop offset="0.99" stop-color="#00ddba"></stop><stop offset="1" stop-color="#00deb9"></stop></linearGradient><linearGradient id="d" x1="87.68" y1="659.88" x2="613.03" y2="659.88" xlink:href="#c"></linearGradient><linearGradient id="e" x1="0" y1="391.64" x2="711.89" y2="391.64" xlink:href="#a"></linearGradient><linearGradient id="f" y1="390.58" x2="711.92" y2="390.58" gradientTransform="matrix(1, 0, 0, -1, 0, 780.15)" gradientUnits="userSpaceOnUse"><stop offset="0" stop-color="#00deb9"></stop><stop offset="0.01" stop-color="#00ddba"></stop><stop offset="0.46" stop-color="#10afcf"></stop><stop offset="0.8" stop-color="#1993dc"></stop><stop offset="1" stop-color="#1d88e1"></stop></linearGradient></defs><path class="a" d="M356.23,745.51a354.89,354.89,0,0,1-260-112.84c-20.64-22.06-.56-52.84,24.91-58C230.83,552.34,374.29,690.84,514.22,675.3c25.92-2.88,51.7-11.22,79.15-27.57,6.75-4,14.44-8.32,19.62-11.68a354.87,354.87,0,0,1-256.8,109.49Z"></path><path class="b" d="M356,745.51A354.89,354.89,0,0,0,616,632.67c20.67-22.09.51-52.85-24.91-58-85.64-17.43-191.86,63.16-300.91,92C227.63,683.18,150.91,679.52,99.47,636,164.15,703.44,255,745.51,356,745.51Z"></path><path class="c" d="M356,33.62A354.93,354.93,0,0,1,616,146.46c20.67,22.09.51,52.85-24.91,58C481.3,226.82,337.85,88.32,197.91,103.86c-25.91,2.88-51.69,11.22-79.14,27.57-6.76,4-14.44,8.32-19.63,11.68A354.91,354.91,0,0,1,356,33.62Z"></path><path class="d" d="M356.23,33.62a354.93,354.93,0,0,0-260,112.84c-20.67,22.09-.51,52.85,24.91,58,109.73,22.36,253.19-116.14,393.12-100.6,25.92,2.88,51.7,11.22,79.15,27.57,6.75,4,14.44,8.32,19.62,11.68A355,355,0,0,0,356.23,33.62Z"></path><path class="e" d="M5.35,451.34c56.84-213.42,644.56,242.35,699.82,7.28A358.47,358.47,0,0,0,706.57,328C661.39,499.17,293.91,252.77,108,249.09,54.13,248,12.9,282.43,4.07,335.62A359.75,359.75,0,0,0,5.35,451.34Z"></path><path class="f" d="M706.54,451.34c-52.73-198-549.39,172.85-676.65,55.11C18.58,496,11.32,478.2,6.72,458.62A358.47,358.47,0,0,1,5.32,328c53.79,203.8,564.45-184.31,681.53-50,10.64,12.2,17.14,34.53,21,57.59a359.59,359.59,0,0,1-1.28,115.74Z"></path><path class="g" d="M1018.62,585.59h.8L1209,116.79h88v566.4h-57.6v-492h-1.6l-204.8,492h-30.4l-204.8-492h-1.6v492h-57.6V116.79h88Z"></path><path class="g" d="M1444.21,472V116.79h57.6v348.8c0,91.2,39.2,180.8,154.4,180.8s154.4-89.6,154.4-180.8V116.79h57.6V472c0,94.4-42.4,225.6-212,225.6S1444.21,566.39,1444.21,472Z"></path><path class="g" d="M1971.32,207.13h-14.4V78.33h-47.4V65.53h109.2v12.8h-47.4Z"></path><path class="g" d="M2109.92,182.73h.2l47.4-117.2h22v141.6h-14.4v-123h-.4l-51.2,123h-7.6l-51.2-123h-.4v123h-14.4V65.53h22Z"></path></svg>